<?xml version="1.0" encoding="UTF-8"?>
<svg id="Layer_1" data-name="Layer 1" xmlns="http://www.w3.org/2000/svg" viewBox="0 0 815.76 233.81">
  <defs>
    <style>
      .cls-1 {
        fill: none;
      }

      .cls-1, .cls-2, .cls-3, .cls-4 {
        stroke-width: 0px;
      }

      .cls-5 {
        isolation: isolate;
      }

      .cls-2 {
        fill: #1f2e61;
      }

      .cls-3 {
        fill: #fff;
      }

      .cls-4 {
        fill: #fba919;
      }
    </style>
  </defs>
  <rect class="cls-2" y="49.33" width="815.76" height="136.17" rx="54.19" ry="54.19"/>
  <g class="cls-5">
    <g class="cls-5">
      <path class="cls-3" d="M446.96,103.5c13.07,0,24.54,8.38,24.54,24.54,0,1.2,0,2.59-.2,4.69h-37.3c.8,6.68,6.68,10.37,13.27,10.37,6.18,0,10.67-2.89,12.87-6.28l10.17,7.58c-4.59,6.68-12.67,11.17-23.14,11.17-14.86,0-26.43-10.27-26.43-26.03,0-14.76,11.07-26.03,26.23-26.03ZM434.49,123.45h23.34c-1.2-5.88-6.18-8.68-11.27-8.68s-10.77,2.59-12.07,8.68Z"/>
      <path class="cls-3" d="M501.82,103.5c6.88,0,12.17,3.49,14.36,6.68v-30.52h13.66v74.8h-13.66v-5.59c-2.19,3.19-7.48,6.68-14.36,6.68-13.27,0-23.44-11.87-23.44-26.03s10.17-26.03,23.44-26.03ZM504.71,115.97c-7.48,0-12.57,5.79-12.57,13.56s5.09,13.57,12.57,13.57,12.57-5.79,12.57-13.57-5.09-13.56-12.57-13.56Z"/>
      <path class="cls-3" d="M542.51,104.6h13.67v26.63c0,7.48,2.59,11.87,8.48,11.87s10.27-4.49,10.27-14.16v-24.34h13.66v49.87h-13.66v-5.69c-2.59,3.99-7.28,6.78-13.66,6.78-12.07,0-18.75-8.78-18.75-22.04v-28.92Z"/>
      <path class="cls-3" d="M600.85,119.96h28.53v13.17h-28.53v-13.17Z"/>
      <path class="cls-3" d="M642.94,83.65h14.46v70.81h-14.46v-70.81Z"/>
      <path class="cls-3" d="M673.16,83.65h23.34c20.35,0,36.4,15.66,36.4,35.41s-16.06,35.41-36.4,35.41h-23.34v-70.81ZM696.5,141.2c13.07,0,21.84-9.87,21.84-22.14s-8.78-22.14-21.84-22.14h-8.88v44.28h8.88Z"/>
    </g>
  </g>
  <path class="cls-3" d="M336.9,154.74h14.5v-25.88c0-10.07,4.99-14.87,11.76-14.87,6.03,0,9.23,4.52,9.23,12.23v28.52h14.59v-31.06c0-13.74-7.62-22.96-20.51-22.96-6.87,0-12.23,2.83-15.06,7.06v-24.38h-14.5v71.34h0ZM307.53,156.15c10.54,0,19.39-6.21,23.62-15.43l-12.33-6.68c-1.98,5.08-6.31,8.38-11.3,8.38-6.68,0-11.95-6.21-11.95-14.11s5.27-13.93,11.95-13.93c4.99,0,9.23,3.2,11.2,8.28l12.33-6.77c-4.24-9.03-13.08-15.15-23.53-15.15-14.78,0-26.36,12.04-26.36,27.58s11.58,27.86,26.36,27.86h0ZM271.4,155.87c2.63,0,4.52-.09,6.21-.37v-12.71c-.85.09-1.88.09-2.83.09-6.31,0-9.03-2.54-9.03-9.03v-19.29h11.48v-12.71h-11.48v-18.44h-14.5v18.44h-8.28v12.71h8.28v22.21c0,12.99,8.94,19.11,20.14,19.11h0ZM221.42,154.74h14.59v-52.89h-14.59v52.89ZM108.2,156.44c15.34,0,26.07-9.03,26.07-22.49,0-11.3-6.59-18.16-17.79-22.21l-5.93-2.16c-8.1-2.92-11.76-4.99-11.76-9.69,0-4.42,4.9-6.77,10.26-6.77,4.99,0,9.23,1.79,12.71,5.08l9.79-10.17c-5.83-5.93-13.65-8.94-22.59-8.94-14.68,0-25.32,8.28-25.32,22.31,0,10.26,6.31,17.13,18.44,21.36l6.4,2.26c7.44,2.63,10.54,5.64,10.54,9.88,0,4.52-4.05,7.53-10.26,7.53s-12.52-3.29-16.56-9.23l-10.73,10.54c4.9,7.44,14.87,12.71,26.73,12.71h0ZM149.8,154.74h14.5l9.6-30.02,10.07,30.02h14.4l17.41-52.89h-15.43l-9.97,33.88-10.91-33.88h-10.91l-10.73,33.88-10.07-33.88h-15.53l17.6,52.89h0Z"/>
  <path class="cls-3" d="M228.76,96.61c4.99,0,9.13-4.14,9.13-9.23s-4.14-9.13-9.13-9.13-9.23,4.14-9.23,9.13,4.14,9.23,9.23,9.23Z"/>
  <rect class="cls-4" x="372.37" y="164.62" width="49.41" height="13.17"/>
  <path class="cls-1" d="M331.16,232.1h0M302.07,233.53h0M266.3,233.24h0M104.72,233.8c15.19,0,25.82-9.03,25.82-22.49,0-11.3-6.53-18.16-17.61-22.21l-5.87-2.16c-8.02-2.92-11.64-4.99-11.64-9.69,0-4.42,4.85-6.77,10.15-6.77,4.94,0,9.13,1.79,12.58,5.08l9.69-10.17c-5.78-5.93-13.51-8.94-22.37-8.94-14.53,0-25.07,8.28-25.07,22.31,0,10.26,6.25,17.13,18.26,21.36l6.34,2.26c7.37,2.63,10.43,5.64,10.43,9.88,0,4.52-4.01,7.53-10.15,7.53s-12.39-3.29-16.4-9.23l-10.62,10.54c4.85,7.44,14.72,12.71,26.47,12.71h0ZM145.91,232.11h0"/>
  <path class="cls-1" d="M457.6,75.65h0M428.52,77.08h0M392.75,76.79,231.17,77.36c15.19,0,25.82-9.03,25.82-22.49,0-11.3-6.53-18.16-17.61-22.21l-5.87-2.16c-8.02-2.92-11.64-4.99-11.64-9.69,0-4.42,4.85-6.77,10.15-6.77,4.94,0,9.13,1.79,12.58,5.08l9.69-10.17c-5.78-5.93-13.51-8.94-22.37-8.94-14.53,0-25.07,8.28-25.07,22.31,0,10.26,6.25,17.13,18.26,21.36l6.34,2.26c7.37,2.63,10.43,5.64,10.43,9.88,0,4.52-4.01,7.53-10.15,7.53s-12.39-3.29-16.4-9.23l-10.62,10.54c4.85,7.44,14.72,12.71,26.47,12.71h0ZM272.36,75.66h0"/>
</svg>